<svg id="visual" viewBox="0 0 900 600" width="900" height="600" xmlns="http://www.w3.org/2000/svg" xmlns:xlink="http://www.w3.org/1999/xlink" version="1.1"><path d="M0 404L21.5 397.7C43 391.3 86 378.7 128.8 383C171.7 387.3 214.3 408.7 257.2 415.7C300 422.7 343 415.3 385.8 403.3C428.7 391.3 471.3 374.7 514.2 369.8C557 365 600 372 642.8 376C685.7 380 728.3 381 771.2 385.2C814 389.3 857 396.7 878.5 400.3L900 404L900 601L878.5 601C857 601 814 601 771.2 601C728.3 601 685.7 601 642.8 601C600 601 557 601 514.2 601C471.3 601 428.7 601 385.8 601C343 601 300 601 257.2 601C214.3 601 171.7 601 128.8 601C86 601 43 601 21.5 601L0 601Z" fill="#4f23e2"></path><path d="M0 418L21.5 415.5C43 413 86 408 128.8 414.8C171.7 421.7 214.3 440.3 257.2 452.7C300 465 343 471 385.8 473.5C428.7 476 471.3 475 514.2 471.7C557 468.3 600 462.7 642.8 457.2C685.7 451.7 728.3 446.3 771.2 435.7C814 425 857 409 878.5 401L900 393L900 601L878.5 601C857 601 814 601 771.2 601C728.3 601 685.7 601 642.8 601C600 601 557 601 514.2 601C471.3 601 428.7 601 385.8 601C343 601 300 601 257.2 601C214.3 601 171.7 601 128.8 601C86 601 43 601 21.5 601L0 601Z" fill="#4520c5"></path><path d="M0 477L21.5 472.5C43 468 86 459 128.8 464.7C171.7 470.3 214.3 490.7 257.2 499.8C300 509 343 507 385.8 506.8C428.7 506.7 471.3 508.3 514.2 502.7C557 497 600 484 642.8 472.5C685.7 461 728.3 451 771.2 454.2C814 457.3 857 473.7 878.5 481.8L900 490L900 601L878.5 601C857 601 814 601 771.2 601C728.3 601 685.7 601 642.8 601C600 601 557 601 514.2 601C471.3 601 428.7 601 385.8 601C343 601 300 601 257.2 601C214.3 601 171.7 601 128.8 601C86 601 43 601 21.5 601L0 601Z" fill="#3c1ca9"></path><path d="M0 532L21.5 528C43 524 86 516 128.8 510C171.7 504 214.3 500 257.2 504.3C300 508.7 343 521.3 385.8 524.5C428.7 527.7 471.3 521.3 514.2 519.2C557 517 600 519 642.8 522.2C685.7 525.3 728.3 529.7 771.2 532.5C814 535.3 857 536.7 878.5 537.3L900 538L900 601L878.5 601C857 601 814 601 771.2 601C728.3 601 685.7 601 642.8 601C600 601 557 601 514.2 601C471.3 601 428.7 601 385.8 601C343 601 300 601 257.2 601C214.3 601 171.7 601 128.8 601C86 601 43 601 21.5 601L0 601Z" fill="#33188e"></path><path d="M0 550L21.5 552C43 554 86 558 128.8 558.8C171.7 559.7 214.3 557.3 257.2 552.5C300 547.7 343 540.3 385.8 537C428.7 533.7 471.3 534.3 514.2 537.7C557 541 600 547 642.8 546.3C685.7 545.7 728.3 538.3 771.2 537.7C814 537 857 543 878.5 546L900 549L900 601L878.5 601C857 601 814 601 771.2 601C728.3 601 685.7 601 642.8 601C600 601 557 601 514.2 601C471.3 601 428.7 601 385.8 601C343 601 300 601 257.2 601C214.3 601 171.7 601 128.8 601C86 601 43 601 21.5 601L0 601Z" fill="#2a1473"></path></svg>