<svg id="visual" viewBox="0 0 900 600" width="900" height="600" xmlns="http://www.w3.org/2000/svg" xmlns:xlink="http://www.w3.org/1999/xlink" version="1.1"><rect x="0" y="0" width="900" height="600" fill="#ffffff"></rect><path d="M0 424L25 424.5C50 425 100 426 150 422C200 418 250 409 300 403.5C350 398 400 396 450 395.7C500 395.3 550 396.7 600 401.7C650 406.7 700 415.3 750 416.3C800 417.3 850 410.7 875 407.3L900 404L900 0L875 0C850 0 800 0 750 0C700 0 650 0 600 0C550 0 500 0 450 0C400 0 350 0 300 0C250 0 200 0 150 0C100 0 50 0 25 0L0 0Z" fill="#2a1473"></path><path d="M0 313L25 317.2C50 321.3 100 329.7 150 330.7C200 331.7 250 325.3 300 321.3C350 317.3 400 315.7 450 322.7C500 329.7 550 345.3 600 349.3C650 353.3 700 345.7 750 338.7C800 331.7 850 325.3 875 322.2L900 319L900 0L875 0C850 0 800 0 750 0C700 0 650 0 600 0C550 0 500 0 450 0C400 0 350 0 300 0C250 0 200 0 150 0C100 0 50 0 25 0L0 0Z" fill="#311788"></path><path d="M0 273L25 275.5C50 278 100 283 150 280.5C200 278 250 268 300 262.3C350 256.7 400 255.3 450 256C500 256.7 550 259.3 600 264.7C650 270 700 278 750 284.8C800 291.7 850 297.3 875 300.2L900 303L900 0L875 0C850 0 800 0 750 0C700 0 650 0 600 0C550 0 500 0 450 0C400 0 350 0 300 0C250 0 200 0 150 0C100 0 50 0 25 0L0 0Z" fill="#381a9e"></path><path d="M0 237L25 231.2C50 225.3 100 213.7 150 206C200 198.3 250 194.7 300 196.2C350 197.7 400 204.3 450 201.2C500 198 550 185 600 184.2C650 183.3 700 194.7 750 199.7C800 204.7 850 203.3 875 202.7L900 202L900 0L875 0C850 0 800 0 750 0C700 0 650 0 600 0C550 0 500 0 450 0C400 0 350 0 300 0C250 0 200 0 150 0C100 0 50 0 25 0L0 0Z" fill="#401db4"></path><path d="M0 155L25 157.3C50 159.7 100 164.3 150 165.7C200 167 250 165 300 155.3C350 145.7 400 128.3 450 121.2C500 114 550 117 600 119.8C650 122.7 700 125.3 750 133.5C800 141.7 850 155.3 875 162.2L900 169L900 0L875 0C850 0 800 0 750 0C700 0 650 0 600 0C550 0 500 0 450 0C400 0 350 0 300 0C250 0 200 0 150 0C100 0 50 0 25 0L0 0Z" fill="#4720cb"></path><path d="M0 73L25 76C50 79 100 85 150 89.8C200 94.7 250 98.3 300 98.2C350 98 400 94 450 87C500 80 550 70 600 63.3C650 56.7 700 53.3 750 50.3C800 47.3 850 44.7 875 43.3L900 42L900 0L875 0C850 0 800 0 750 0C700 0 650 0 600 0C550 0 500 0 450 0C400 0 350 0 300 0C250 0 200 0 150 0C100 0 50 0 25 0L0 0Z" fill="#4f23e2"></path></svg>