<svg id="visual" viewbox="0 0 100 100" xmlns="http://www.w3.org/2000/svg" viewBox="0 0 900 600"><defs><style>.cls-1{fill:#643e7f;}.cls-2{fill:#76458a;}.cls-3{fill:#8a4b95;}.cls-4{fill:#9d519f;}</style></defs><path class="cls-1" d="M0,414l30-2c30-2,90-6,150-7s120,1,180,5.3,120,11,180,16.4,120,9.3,180,5.5,120-15.5,150-21.4l30-5.8V601H0Z"/><path class="cls-2" d="M0,441l30,9.8c30,9.9,90,29.5,150,31.5S300,468.7,360,461s120-7.3,180-14,120-20.3,180-14.2S840,465,870,478l30,13V601H0Z"/><path class="cls-3" d="M0,467l30,3.5C60,474,120,481,180,493s120,29,180,25,120-29,180-31,120,19,180,30.3,120,13,150,13.9l30,.8v69H0Z"/><path class="cls-4" d="M0,516l30,1.8c30,1.9,90,5.5,150,11.4S300,543,360,541s120-14,180-15.3,120,8,180,17.1S840,561,870,565.5l30,4.5v31H0Z"/></svg>