<svg id="visual" viewBox="0 0 900 600" width="900" height="600" xmlns="http://www.w3.org/2000/svg" xmlns:xlink="http://www.w3.org/1999/xlink" version="1.1"><path d="M0 338L21.5 342.5C43 347 86 356 128.8 375.3C171.7 394.7 214.3 424.3 257.2 423.8C300 423.3 343 392.7 385.8 377.3C428.7 362 471.3 362 514.2 358.5C557 355 600 348 642.8 353C685.7 358 728.3 375 771.2 377.3C814 379.7 857 367.3 878.5 361.2L900 355L900 0L878.5 0C857 0 814 0 771.2 0C728.3 0 685.7 0 642.8 0C600 0 557 0 514.2 0C471.3 0 428.7 0 385.8 0C343 0 300 0 257.2 0C214.3 0 171.7 0 128.8 0C86 0 43 0 21.5 0L0 0Z" fill="#643e7f"></path><path d="M0 256L21.5 261C43 266 86 276 128.8 298.8C171.7 321.7 214.3 357.3 257.2 355.2C300 353 343 313 385.8 294.5C428.7 276 471.3 279 514.2 299.7C557 320.3 600 358.7 642.8 371.3C685.7 384 728.3 371 771.2 357.8C814 344.7 857 331.3 878.5 324.7L900 318L900 0L878.5 0C857 0 814 0 771.2 0C728.3 0 685.7 0 642.8 0C600 0 557 0 514.2 0C471.3 0 428.7 0 385.8 0C343 0 300 0 257.2 0C214.3 0 171.7 0 128.8 0C86 0 43 0 21.5 0L0 0Z" fill="#76458a"></path><path d="M0 267L21.5 270.2C43 273.3 86 279.7 128.8 283.5C171.7 287.3 214.3 288.7 257.2 274C300 259.3 343 228.7 385.8 225.7C428.7 222.7 471.3 247.3 514.2 248.2C557 249 600 226 642.8 215.2C685.7 204.3 728.3 205.7 771.2 197.7C814 189.7 857 172.3 878.5 163.7L900 155L900 0L878.5 0C857 0 814 0 771.2 0C728.3 0 685.7 0 642.8 0C600 0 557 0 514.2 0C471.3 0 428.7 0 385.8 0C343 0 300 0 257.2 0C214.3 0 171.7 0 128.8 0C86 0 43 0 21.5 0L0 0Z" fill="#8a4b95"></path><path d="M0 160L21.5 153.7C43 147.3 86 134.7 128.8 124.5C171.7 114.3 214.3 106.7 257.2 105.3C300 104 343 109 385.8 120.7C428.7 132.3 471.3 150.7 514.2 142.2C557 133.7 600 98.3 642.8 97C685.7 95.7 728.3 128.3 771.2 137.2C814 146 857 131 878.5 123.5L900 116L900 0L878.5 0C857 0 814 0 771.2 0C728.3 0 685.7 0 642.8 0C600 0 557 0 514.2 0C471.3 0 428.7 0 385.8 0C343 0 300 0 257.2 0C214.3 0 171.7 0 128.8 0C86 0 43 0 21.5 0L0 0Z" fill="#9d52a0"></path></svg>