<svg id="visual" xmlns="http://www.w3.org/2000/svg" viewBox="0 0 900 600"><defs><style>.cls-1{fill:#9d519f;}.cls-2{fill:#8a4b95;}.cls-3{fill:#76458a;}.cls-4{fill:#643e7f;}</style></defs><path class="cls-1" d="M0,314l25,6c25,6,75,18,125,17.3s100-14,150-2.8,100,46.8,150,54.8,100-11.6,150-20.5,100-6.8,150-1.1,100,15,125,19.6l25,4.7V601H0Z"/><path class="cls-2" d="M0,445l25-11.5c25-11.5,75-34.5,125-39s100,9.5,150,21.7,100,22.5,150,22.3S550,427.7,600,424s100-.3,150-8.8,100-28.9,125-39L900,366V601H0Z"/><path class="cls-3" d="M0,444l25,1.7c25,1.6,75,5,125,10.5s100,13.1,150,21.1S400,493.7,450,488s100-25.3,150-33.8,100-5.9,150,.1,100,15.4,125,20l25,4.7V601H0Z"/><path class="cls-4" d="M0,521l25,4.3c25,4.4,75,13,125,10.5s100-16.1,150-17.1,100,10.6,150,12.6,100-5.6,150-8.1,100,.1,150-5.9,100-20.6,125-28l25-7.3V601H0Z"/></svg>