<svg id="visual" viewBox="0 0 900 600" width="900" height="600" xmlns="http://www.w3.org/2000/svg" xmlns:xlink="http://www.w3.org/1999/xlink" version="1.1"><rect x="0" y="0" width="900" height="600" fill="#4F23E2"></rect><path d="M0 444L30 450C60 456 120 468 180 445.7C240 423.3 300 366.7 360 357.8C420 349 480 388 540 398.5C600 409 660 391 720 388.7C780 386.3 840 399.7 870 406.3L900 413L900 601L870 601C840 601 780 601 720 601C660 601 600 601 540 601C480 601 420 601 360 601C300 601 240 601 180 601C120 601 60 601 30 601L0 601Z" fill="#ffffff" stroke-linecap="round" stroke-linejoin="miter"></path></svg>